<svg xmlns="http://www.w3.org/2000/svg" viewBox="0 0 65 52" width="65" height="52">
	<style>
		tspan { white-space:pre }
		.shp0 { fill: #d6ebfe;stroke: #91bee7 } 
	</style>
	<g id="icons">
		<g id="Group 1">
			<path id="Ellipse 4 copy 4" class="shp0" d="M51 40.95L51 41L11 41C5.48 41 1 36.52 1 31C1 26.51 3.95 22.72 8.02 21.45C8.02 21.3 8 21.15 8 21C8 9.95 16.95 1 28 1C35.66 1 42.31 5.31 45.67 11.64C47.04 11.23 48.49 11 50 11C58.28 11 65 17.72 65 26C65 33.95 58.82 40.43 51 40.95ZM26 43.54C26 43.54 27.2 47.45 26.1 49.37C24.99 51.28 23.91 51.57 22 50.46C20.09 49.36 19.8 48.28 20.9 46.37C22.01 44.45 26 43.54 26 43.54ZM36 43.54C36 43.54 37.2 47.45 36.1 49.37C34.99 51.28 33.91 51.57 32 50.46C30.09 49.36 29.8 48.28 30.9 46.37C32.01 44.45 36 43.54 36 43.54ZM46 43.54C46 43.54 47.2 47.45 46.1 49.37C44.99 51.28 43.91 51.57 42 50.46C40.09 49.36 39.8 48.28 40.9 46.37C42.01 44.45 46 43.54 46 43.54Z" />
		</g>
	</g>
</svg>